<svg data-v-423bf9ae="" xmlns="http://www.w3.org/2000/svg" viewBox="0 0 328.73238959877176 60" class="font"><!----><!----><defs data-v-423bf9ae=""><linearGradient data-v-423bf9ae="" gradientTransform="rotate(25)" id="266539af-676b-4eb8-880d-748bc4f12394" x1="0%" y1="0%" x2="100%" y2="0%"><stop data-v-423bf9ae="" offset="0%" style="stop-color: rgb(142, 66, 211); stop-opacity: 1;"></stop><stop data-v-423bf9ae="" offset="100%" style="stop-color: rgb(212, 105, 117); stop-opacity: 1;"></stop></linearGradient></defs><g data-v-423bf9ae="" id="e97586ff-27ea-4c47-89de-3959f0deec80" fill="url(#266539af-676b-4eb8-880d-748bc4f12394)" transform="matrix(5.633802514207732,0,0,5.633802514207732,-2.5915416783047363,-1.1267598490793311)"><path d="M3.18 5.92L3.18 6.87L3.18 8.20Q3.18 8.32 3.21 8.71Q3.23 9.10 3.23 9.25L3.23 9.25Q3.23 9.83 3.32 10.04L3.32 10.04L4.49 10.20L4.49 10.68L2.31 10.64L0.46 10.68L0.46 10.20L1.32 10.04L1.43 8.20L1.43 3.82L1.32 1.98L0.46 1.83L0.46 1.35L2.31 1.38L5.50 1.31Q6.93 1.31 7.73 1.95Q8.53 2.59 8.53 3.74L8.53 3.74Q8.53 5.10 7.46 6.04Q6.40 6.98 4.81 6.98L4.81 6.98L4.13 6.97Q3.87 6.97 3.46 6.87L3.46 6.87L3.84 5.92L4.34 6.03L4.85 6.04Q5.60 6.04 6.12 5.48L6.12 5.48Q6.62 4.89 6.62 4.04L6.62 4.04Q6.62 3.18 6.09 2.67Q5.55 2.17 4.63 2.17L4.63 2.17Q4.42 2.17 4.21 2.17L4.21 2.17Q4.00 2.20 3.91 2.22L3.91 2.22Q3.57 2.22 3.18 2.35L3.18 2.35L3.18 5.92ZM11.64 7.08L11.64 7.94Q11.64 8.42 11.65 8.75Q11.66 9.08 11.72 9.54Q11.78 10.00 11.81 10.04L11.81 10.04L12.70 10.20L12.70 10.68L10.83 10.64L9.11 10.68L9.11 10.20L9.87 10.04L9.94 9.39Q9.96 9.09 9.98 8.70Q10.01 8.32 10.01 7.94L10.01 7.94L10.01 6.40L10.01 6.22L10.01 6.06Q10.01 5.81 10.00 5.55Q9.98 5.28 9.95 5.03L9.95 5.03L9.88 4.19L9.00 4.02L9.00 3.54Q9.28 3.54 9.52 3.50L9.52 3.50Q9.87 3.43 10.03 3.41L10.03 3.41Q10.38 3.35 10.57 3.31Q10.76 3.26 11.08 3.17L11.08 3.17L11.50 3.17L11.45 5.24Q11.78 4.24 12.49 3.72L12.49 3.72Q12.82 3.48 13.16 3.35Q13.50 3.22 13.86 3.22L13.86 3.22Q14 3.22 14.14 3.24Q14.27 3.26 14.43 3.31Q14.58 3.35 14.68 3.43L14.68 3.43L14.26 4.48L14.04 5.27Q13.56 5.16 13.55 5.05L13.55 5.05Q13.55 4.91 13.57 4.84L13.57 4.84Q13.57 4.55 13.48 4.52Q13.39 4.48 13.24 4.48L13.24 4.48Q12.59 4.48 12.12 5.23Q11.64 5.98 11.64 7.08L11.64 7.08ZM19.90 6.87L19.90 6.87L19.41 6.87Q18.77 6.87 18.24 7.02Q17.71 7.17 17.32 7.45L17.32 7.45Q16.57 7.91 16.57 8.69L16.57 8.69Q16.57 9.04 16.92 9.35Q17.26 9.65 17.84 9.65L17.84 9.65Q18.79 9.65 19.34 8.85Q19.90 8.04 19.90 6.87ZM20.06 9.04L20.06 9.04Q19.37 10.23 18.63 10.54Q17.90 10.85 17.13 10.85L17.13 10.85Q16.11 10.85 15.47 10.28Q14.83 9.70 14.83 8.89L14.83 8.89Q14.83 7.58 16.17 6.83Q17.51 6.09 19.90 6.09L19.90 6.09L19.90 5.35Q19.90 4.65 19.55 4.41Q19.19 4.17 18.40 4.17L18.40 4.17Q17.59 4.17 17.06 4.36L17.06 4.36Q16.76 4.47 16.57 4.55L16.57 4.55Q16.54 4.56 16.49 4.59L16.49 4.59L16.49 5.28L16.01 5.43L15.31 3.85L16.29 3.54Q17.25 3.22 18.73 3.22L18.73 3.22Q21.02 3.22 21.35 4.58Q21.67 5.93 21.67 9.58L21.67 9.58L21.67 9.81L22.40 10.18L22.40 10.68L21.40 10.66L20.98 10.65L20.20 10.69Q20.17 10.63 20.15 10.53Q20.12 10.43 20.12 10.21L20.12 10.21Q20.12 9.97 20.11 9.68Q20.10 9.39 20.06 9.04ZM29.63 8.40L29.63 8.40Q29.63 9.38 28.63 10.12Q27.62 10.85 26.20 10.85L26.20 10.85Q25.27 10.85 24.50 10.63Q23.73 10.41 23.03 9.98L23.03 9.98Q23.16 9.83 23.34 9.61Q23.51 9.39 23.64 9.21Q23.77 9.03 23.91 8.81L23.91 8.81Q24.01 8.65 24.14 8.40L24.14 8.40L24.58 8.63L24.41 9.31Q24.63 9.50 25.15 9.71L25.15 9.71Q25.65 9.89 26.43 9.89L26.43 9.89Q27.09 9.89 27.55 9.61Q28 9.33 28 8.81L28 8.81Q28 8.29 27.45 8.04L27.45 8.04Q27.19 7.92 26.81 7.79Q26.43 7.65 25.97 7.51L25.97 7.51Q25.02 7.27 24.28 6.81Q23.53 6.35 23.53 5.39L23.53 5.39Q23.53 4.47 24.50 3.84Q25.46 3.22 26.74 3.22L26.74 3.22Q27.46 3.22 28.19 3.35L28.19 3.35Q28.50 3.41 28.77 3.47Q29.04 3.54 29.27 3.62L29.27 3.62L28.69 5.23L28.20 5.15L28.20 4.58Q27.90 4.41 27.39 4.25Q26.88 4.09 26.44 4.09L26.44 4.09Q25.77 4.09 25.43 4.36L25.43 4.36Q25.08 4.61 25.08 5.05L25.08 5.05Q25.08 5.39 25.49 5.67L25.49 5.67Q25.89 5.93 26.90 6.17L26.90 6.17Q28.43 6.51 29.03 7.04Q29.63 7.57 29.63 8.40ZM36.86 5.43L36.86 7.94Q36.86 8.35 36.88 8.72Q36.89 9.08 36.94 9.53Q36.98 9.98 37.01 10.04L37.01 10.04L37.76 10.20L37.76 10.68L36.05 10.64L35.24 10.68L35.24 10.20L35.23 10.04L35.23 6.43Q35.23 5.40 34.92 4.90L34.92 4.90Q34.65 4.40 33.90 4.40L33.90 4.40Q33.15 4.40 32.68 5.04L32.68 5.04Q32.27 5.67 32.27 6.73L32.27 6.73L32.27 7.94Q32.27 8.42 32.28 8.75Q32.29 9.08 32.34 9.39L32.34 9.39L32.41 10.04L33.16 10.20L33.16 10.68L31.46 10.64L29.74 10.68L29.74 10.20L30.49 10.04L30.56 9.39Q30.59 9.09 30.61 8.70Q30.63 8.32 30.63 7.94L30.63 7.94L30.63 3.42L30.63 3.22L30.63 3.05L30.63 2.91Q30.63 2.36 30.59 1.99L30.59 1.99Q30.59 1.73 30.56 1.53Q30.54 1.32 30.50 1.22L30.50 1.22L29.62 1.05L29.62 0.56L31.78 0.20L32.40 0.20L32.29 1.25L32.27 2.12L32.27 4.48Q32.80 3.84 33.42 3.53Q34.04 3.22 34.74 3.22L34.74 3.22Q35.71 3.22 36.29 3.82Q36.86 4.43 36.86 5.43L36.86 5.43ZM43.12 6.87L43.12 6.87L42.63 6.87Q41.99 6.87 41.46 7.02Q40.93 7.17 40.55 7.45L40.55 7.45Q39.80 7.91 39.80 8.69L39.80 8.69Q39.80 9.04 40.14 9.35Q40.49 9.65 41.06 9.65L41.06 9.65Q42.01 9.65 42.57 8.85Q43.12 8.04 43.12 6.87ZM43.29 9.04L43.29 9.04Q42.60 10.23 41.86 10.54Q41.12 10.85 40.36 10.85L40.36 10.85Q39.33 10.85 38.69 10.28Q38.06 9.70 38.06 8.89L38.06 8.89Q38.06 7.58 39.40 6.83Q40.74 6.09 43.12 6.09L43.12 6.09L43.12 5.35Q43.12 4.65 42.77 4.41Q42.42 4.17 41.62 4.17L41.62 4.17Q40.81 4.17 40.28 4.36L40.28 4.36Q39.99 4.47 39.80 4.55L39.80 4.55Q39.76 4.56 39.71 4.59L39.71 4.59L39.71 5.28L39.24 5.43L38.53 3.85L39.51 3.54Q40.47 3.22 41.95 3.22L41.95 3.22Q44.24 3.22 44.57 4.58Q44.90 5.93 44.90 9.58L44.90 9.58L44.90 9.81L45.62 10.18L45.62 10.68L44.62 10.66L44.20 10.65L43.42 10.69Q43.39 10.63 43.37 10.53Q43.35 10.43 43.35 10.21L43.35 10.21Q43.35 9.97 43.33 9.68Q43.32 9.39 43.29 9.04ZM53.38 5.43L53.38 7.94Q53.38 8.35 53.39 8.72Q53.40 9.08 53.45 9.53Q53.50 9.98 53.52 10.04L53.52 10.04L54.27 10.20L54.27 10.68L52.57 10.64L51.76 10.68L51.76 10.20L51.75 10.04L51.75 6.43Q51.75 5.40 51.44 4.90L51.44 4.90Q51.16 4.40 50.41 4.40L50.41 4.40Q49.66 4.40 49.20 5.04L49.20 5.04Q48.78 5.67 48.78 6.73L48.78 6.73L48.78 7.94Q48.78 8.42 48.79 8.75Q48.80 9.08 48.85 9.39L48.85 9.39L48.92 10.04L49.67 10.20L49.67 10.68L47.97 10.64L46.25 10.68L46.25 10.20L47.00 10.04L47.08 9.39Q47.10 9.09 47.12 8.70Q47.15 8.32 47.15 7.94L47.15 7.94L47.15 6.40L47.15 6.22L47.15 6.06Q47.15 5.81 47.14 5.55Q47.12 5.28 47.09 5.03L47.09 5.03L47.02 4.19L46.13 4.02L46.13 3.54Q46.44 3.54 46.69 3.50L46.69 3.50Q47.06 3.43 47.24 3.41L47.24 3.41Q47.74 3.32 47.86 3.30Q47.98 3.28 48.35 3.17L48.35 3.17L48.84 3.17L48.78 4.48Q49.32 3.84 49.94 3.53Q50.55 3.22 51.26 3.22L51.26 3.22Q52.22 3.22 52.80 3.82Q53.38 4.43 53.38 5.43L53.38 5.43ZM56.56 4.21L56.56 8.03Q56.56 8.91 56.75 9.29L56.75 9.29Q56.92 9.67 57.41 9.67L57.41 9.67Q57.64 9.67 57.93 9.54L57.93 9.54Q58.17 9.41 58.37 9.22L58.37 9.22L58.81 9.71Q58.67 9.98 58.12 10.41Q57.57 10.84 56.75 10.84L56.75 10.84Q55.92 10.84 55.40 10.35L55.40 10.35Q54.93 9.85 54.93 9.02L54.93 9.02L54.93 4.21L53.97 4.21L53.97 3.72L54.93 3.42L54.87 1.85L56.62 1.49L56.56 3.42L58.50 3.35L58.12 4.25L56.56 4.21Z"></path></g><!----><!----></svg>